name Walk1.mot
datacolumns 19
datarows 25
range 2.02000000 2.04400000
endheader

                time	   L_ground_force_vx	   L_ground_force_vy	   L_ground_force_vz	   L_ground_force_px	   L_ground_force_py	   L_ground_force_pz	   R_ground_force_vx	   R_ground_force_vy	   R_ground_force_vz	   R_ground_force_px	   R_ground_force_py	   R_ground_force_pz	   L_ground_torque_x	   L_ground_torque_y	   L_ground_torque_z	   R_ground_torque_x	   R_ground_torque_y	   R_ground_torque_z	
          2.02000000	         23.61904999	         65.00013880	          4.49368036	          0.50936282	          0.00000000	          0.07467418	          0.00000000	          0.00000000	          0.00000000	          0.00000000	          0.00000000	          0.00000000	          0.00000000	         -5.18526481	          0.00000000	          0.00000000	          0.00000000	          0.00000000	
          2.02100000	         21.98383542	         61.03119476	          4.57009836	          0.50787667	          0.00000000	          0.07557611	          0.00000000	          0.00000000	          0.00000000	          0.00000000	          0.00000000	          0.00000000	          0.00000000	         -4.91136207	          0.00000000	          0.00000000	          0.00000000	          0.00000000	
          2.02200000	         20.41801618	         57.33993152	          4.60390839	          0.50690409	          0.00000000	          0.07594197	          0.00000000	          0.00000000	          0.00000000	          0.00000000	          0.00000000	          0.00000000	          0.00000000	         -4.62580346	          0.00000000	          0.00000000	          0.00000000	          0.00000000	
          2.02300000	         18.89225338	         53.88065474	          4.59265228	          0.50676068	          0.00000000	          0.07591436	          0.00000000	          0.00000000	          0.00000000	          0.00000000	          0.00000000	          0.00000000	          0.00000000	         -4.32509223	          0.00000000	          0.00000000	          0.00000000	          0.00000000	
          2.02400000	         17.35934517	         50.61480766	          4.54634492	          0.50765503	          0.00000000	          0.07567141	          0.00000000	          0.00000000	          0.00000000	          0.00000000	          0.00000000	          0.00000000	          0.00000000	         -4.00535885	          0.00000000	          0.00000000	          0.00000000	          0.00000000	
          2.02500000	         15.77473104	         47.50484730	          4.47943537	          0.50961733	          0.00000000	          0.07529547	          0.00000000	          0.00000000	          0.00000000	          0.00000000	          0.00000000	          0.00000000	          0.00000000	         -3.66539311	          0.00000000	          0.00000000	          0.00000000	          0.00000000	
          2.02600000	         14.12350782	         44.53317729	          4.39621837	          0.51241801	          0.00000000	          0.07486737	          0.00000000	          0.00000000	          0.00000000	          0.00000000	          0.00000000	          0.00000000	          0.00000000	         -3.31363089	          0.00000000	          0.00000000	          0.00000000	          0.00000000	
          2.02700000	         12.43795292	         41.74063132	          4.29631445	          0.51535820	          0.00000000	          0.07483902	          0.00000000	          0.00000000	          0.00000000	          0.00000000	          0.00000000	          0.00000000	          0.00000000	         -2.96874764	          0.00000000	          0.00000000	          0.00000000	          0.00000000	
          2.02800000	         10.78424231	         39.19881296	          4.19303627	          0.51752510	          0.00000000	          0.07592833	          0.00000000	          0.00000000	          0.00000000	          0.00000000	          0.00000000	          0.00000000	          0.00000000	         -2.64555034	          0.00000000	          0.00000000	          0.00000000	          0.00000000	
          2.02900000	          9.22435419	         36.90717199	          4.11155216	          0.51846558	          0.00000000	          0.07842589	          0.00000000	          0.00000000	          0.00000000	          0.00000000	          0.00000000	          0.00000000	          0.00000000	         -2.34457129	          0.00000000	          0.00000000	          0.00000000	          0.00000000	
          2.03000000	          7.79009447	         34.73937108	          4.06146168	          0.51833044	          0.00000000	          0.08176499	          0.00000000	          0.00000000	          0.00000000	          0.00000000	          0.00000000	          0.00000000	          0.00000000	         -2.06154852	          0.00000000	          0.00000000	          0.00000000	          0.00000000	
          2.03100000	          6.48482754	         32.50390108	          4.02152584	          0.51755381	          0.00000000	          0.08500117	          0.00000000	          0.00000000	          0.00000000	          0.00000000	          0.00000000	          0.00000000	          0.00000000	         -1.79939022	          0.00000000	          0.00000000	          0.00000000	          0.00000000	
          2.03200000	          5.29618098	         30.00777468	          3.94946015	          0.51658153	          0.00000000	          0.08762092	          0.00000000	          0.00000000	          0.00000000	          0.00000000	          0.00000000	          0.00000000	          0.00000000	         -1.56211642	          0.00000000	          0.00000000	          0.00000000	          0.00000000	
          2.03300000	          4.20658438	         27.04252307	          3.78722193	          0.51557931	          0.00000000	          0.08969765	          0.00000000	          0.00000000	          0.00000000	          0.00000000	          0.00000000	          0.00000000	          0.00000000	         -1.34265137	          0.00000000	          0.00000000	          0.00000000	          0.00000000	
          2.03400000	          3.20198072	         23.37918360	          3.46467002	          0.51440849	          0.00000000	          0.09162491	          0.00000000	          0.00000000	          0.00000000	          0.00000000	          0.00000000	          0.00000000	          0.00000000	         -1.12272337	          0.00000000	          0.00000000	          0.00000000	          0.00000000	
          2.03500000	          2.28012702	         18.86177512	          2.92979246	          0.51301955	          0.00000000	          0.09386582	          0.00000000	          0.00000000	          0.00000000	          0.00000000	          0.00000000	          0.00000000	          0.00000000	         -0.88407168	          0.00000000	          0.00000000	          0.00000000	          0.00000000	
          2.03600000	          1.45977419	         13.64447104	          2.20240983	          0.51158184	          0.00000000	          0.09663961	          0.00000000	          0.00000000	          0.00000000	          0.00000000	          0.00000000	          0.00000000	          0.00000000	         -0.62601339	          0.00000000	          0.00000000	          0.00000000	          0.00000000	
          2.03700000	          0.00000000	          0.00000000	          0.00000000	          0.00000000	          0.00000000	          0.00000000	          0.00000000	          0.00000000	          0.00000000	          0.00000000	          0.00000000	          0.00000000	          0.00000000	          0.00000000	          0.00000000	          0.00000000	          0.00000000	          0.00000000	
          2.03800000	          0.00000000	          0.00000000	          0.00000000	          0.00000000	          0.00000000	          0.00000000	          0.00000000	          0.00000000	          0.00000000	          0.00000000	          0.00000000	          0.00000000	          0.00000000	          0.00000000	          0.00000000	          0.00000000	          0.00000000	          0.00000000	
          2.03900000	          0.00000000	          0.00000000	          0.00000000	          0.00000000	          0.00000000	          0.00000000	          0.00000000	          0.00000000	          0.00000000	          0.00000000	          0.00000000	          0.00000000	          0.00000000	          0.00000000	          0.00000000	          0.00000000	          0.00000000	          0.00000000	
          2.04000000	          0.00000000	          0.00000000	          0.00000000	          0.00000000	          0.00000000	          0.00000000	          0.00000000	          0.00000000	          0.00000000	          0.00000000	          0.00000000	          0.00000000	          0.00000000	          0.00000000	          0.00000000	          0.00000000	          0.00000000	          0.00000000	
          2.04100000	          0.00000000	          0.00000000	          0.00000000	          0.00000000	          0.00000000	          0.00000000	          0.00000000	          0.00000000	          0.00000000	          0.00000000	          0.00000000	          0.00000000	          0.00000000	          0.00000000	          0.00000000	          0.00000000	          0.00000000	          0.00000000	
          2.04200000	          0.00000000	          0.00000000	          0.00000000	          0.00000000	          0.00000000	          0.00000000	          0.00000000	          0.00000000	          0.00000000	          0.00000000	          0.00000000	          0.00000000	          0.00000000	          0.00000000	          0.00000000	          0.00000000	          0.00000000	          0.00000000	
          2.04300000	          0.00000000	          0.00000000	          0.00000000	          0.00000000	          0.00000000	          0.00000000	          0.00000000	          0.00000000	          0.00000000	          0.00000000	          0.00000000	          0.00000000	          0.00000000	          0.00000000	          0.00000000	          0.00000000	          0.00000000	          0.00000000	
          2.04400000	          0.00000000	          0.00000000	          0.00000000	          0.00000000	          0.00000000	          0.00000000	          0.00000000	          0.00000000	          0.00000000	          0.00000000	          0.00000000	          0.00000000	          0.00000000	          0.00000000	          0.00000000	          0.00000000	          0.00000000	          0.00000000	
